<svg xmlns="http://www.w3.org/2000/svg" xmlns:xlink="http://www.w3.org/1999/xlink" width="260" zoomAndPan="magnify" viewBox="0 0 194.87999 89.999999" height="120" preserveAspectRatio="xMidYMid meet" version="1.0"><defs><g/><clipPath id="55044b6708"><path d="M 70.78125 0.0273438 L 124.09375 0.0273438 L 124.09375 56.082031 L 70.78125 56.082031 Z M 70.78125 0.0273438 " clip-rule="nonzero"/></clipPath></defs><g clip-path="url(#55044b6708)"><path fill="#452543" d="M 97.4375 0.0273438 L 97.878906 23.835938 C 97.886719 24.238281 98.144531 24.585938 98.527344 24.710938 C 98.90625 24.832031 99.320312 24.703125 99.558594 24.382812 L 113.914062 5.378906 L 100.273438 24.902344 C 100.046875 25.230469 100.050781 25.664062 100.285156 25.988281 C 100.519531 26.308594 100.933594 26.449219 101.3125 26.332031 L 124.09375 19.394531 L 101.585938 27.171875 C 101.210938 27.300781 100.957031 27.65625 100.957031 28.054688 C 100.957031 28.453125 101.210938 28.808594 101.585938 28.9375 L 124.09375 36.714844 L 101.3125 29.777344 C 100.933594 29.664062 100.519531 29.800781 100.285156 30.125 C 100.050781 30.445312 100.046875 30.882812 100.273438 31.207031 L 113.914062 50.730469 L 99.558594 31.726562 C 99.320312 31.410156 98.90625 31.277344 98.527344 31.402344 C 98.144531 31.523438 97.886719 31.875 97.878906 32.273438 L 97.4375 56.082031 L 96.996094 32.273438 C 96.988281 31.875 96.730469 31.523438 96.351562 31.402344 C 95.972656 31.277344 95.554688 31.410156 95.316406 31.726562 L 80.964844 50.730469 L 94.601562 31.207031 C 94.832031 30.882812 94.824219 30.445312 94.589844 30.125 C 94.359375 29.800781 93.945312 29.664062 93.5625 29.777344 L 70.78125 36.714844 L 93.289062 28.9375 C 93.667969 28.808594 93.917969 28.453125 93.917969 28.054688 C 93.917969 27.65625 93.667969 27.300781 93.289062 27.171875 L 70.78125 19.394531 L 93.5625 26.332031 C 93.945312 26.449219 94.359375 26.308594 94.589844 25.988281 C 94.824219 25.664062 94.832031 25.230469 94.601562 24.902344 L 80.964844 5.378906 L 95.316406 24.382812 C 95.554688 24.703125 95.972656 24.832031 96.351562 24.710938 C 96.730469 24.585938 96.988281 24.238281 96.996094 23.835938 L 97.4375 0.0273438 " fill-opacity="1" fill-rule="evenodd"/></g><path fill="#452543" d="M 101.230469 9.597656 L 98.714844 22.917969 C 98.59375 23.554688 98.890625 24.195312 99.453125 24.511719 C 100.011719 24.832031 100.714844 24.757812 101.199219 24.332031 L 111.359375 15.351562 L 101.488281 24.648438 C 101.019531 25.09375 100.882812 25.785156 101.148438 26.375 C 101.417969 26.960938 102.027344 27.316406 102.671875 27.253906 L 116.167969 25.960938 L 102.71875 27.683594 C 102.078125 27.765625 101.558594 28.242188 101.429688 28.878906 C 101.300781 29.511719 101.585938 30.15625 102.144531 30.484375 L 113.824219 37.367188 L 101.929688 30.855469 C 101.363281 30.546875 100.664062 30.632812 100.183594 31.066406 C 99.707031 31.503906 99.5625 32.191406 99.816406 32.785156 L 105.21875 45.222656 L 99.425781 32.964844 C 99.148438 32.378906 98.535156 32.035156 97.890625 32.105469 C 97.25 32.179688 96.722656 32.652344 96.585938 33.28125 L 93.644531 46.515625 L 96.164062 33.195312 C 96.28125 32.558594 95.984375 31.917969 95.425781 31.601562 C 94.863281 31.28125 94.160156 31.355469 93.675781 31.78125 L 83.519531 40.761719 L 93.386719 31.464844 C 93.855469 31.019531 93.992188 30.328125 93.726562 29.738281 C 93.460938 29.152344 92.847656 28.796875 92.207031 28.859375 L 78.707031 30.152344 L 92.15625 28.433594 C 92.796875 28.347656 93.316406 27.871094 93.445312 27.238281 C 93.578125 26.605469 93.289062 25.957031 92.734375 25.628906 L 81.054688 18.746094 L 92.945312 25.257812 C 93.511719 25.566406 94.214844 25.480469 94.691406 25.046875 C 95.167969 24.613281 95.316406 23.921875 95.058594 23.328125 L 89.65625 10.890625 L 95.449219 23.148438 C 95.726562 23.734375 96.34375 24.078125 96.984375 24.007812 C 97.625 23.933594 98.152344 23.464844 98.292969 22.832031 L 101.230469 9.597656 " fill-opacity="1" fill-rule="evenodd"/><path fill="#452543" d="M 102.433594 16.410156 L 98.972656 24.847656 C 98.808594 25.246094 98.917969 25.710938 99.242188 25.996094 C 99.570312 26.28125 100.042969 26.328125 100.421875 26.113281 L 108.324219 21.574219 L 100.566406 26.363281 C 100.199219 26.589844 100.015625 27.027344 100.109375 27.453125 C 100.207031 27.875 100.5625 28.191406 100.992188 28.238281 L 110.058594 29.210938 L 100.96875 28.523438 C 100.535156 28.492188 100.128906 28.738281 99.957031 29.136719 C 99.785156 29.539062 99.886719 30 100.207031 30.292969 L 106.96875 36.410156 L 100.019531 30.511719 C 99.6875 30.230469 99.214844 30.191406 98.839844 30.410156 C 98.46875 30.632812 98.277344 31.070312 98.367188 31.492188 L 100.242188 40.414062 L 98.082031 31.558594 C 97.980469 31.136719 97.621094 30.824219 97.1875 30.785156 C 96.757812 30.746094 96.347656 30.988281 96.167969 31.382812 L 92.441406 39.703125 L 95.902344 31.269531 C 96.066406 30.867188 95.960938 30.40625 95.632812 30.117188 C 95.304688 29.832031 94.832031 29.785156 94.457031 30 L 86.550781 34.542969 L 94.308594 29.753906 C 94.679688 29.523438 94.863281 29.085938 94.765625 28.664062 C 94.667969 28.238281 94.316406 27.925781 93.882812 27.878906 L 84.820312 26.902344 L 93.910156 27.589844 C 94.34375 27.621094 94.75 27.375 94.921875 26.976562 C 95.089844 26.578125 94.988281 26.113281 94.667969 25.824219 L 87.90625 19.707031 L 94.859375 25.605469 C 95.1875 25.886719 95.664062 25.925781 96.035156 25.703125 C 96.410156 25.480469 96.601562 25.046875 96.511719 24.621094 L 94.636719 15.699219 L 96.792969 24.558594 C 96.894531 24.980469 97.253906 25.289062 97.6875 25.328125 C 98.121094 25.367188 98.53125 25.128906 98.707031 24.730469 L 102.433594 16.410156 " fill-opacity="1" fill-rule="evenodd"/><g fill="#452543" fill-opacity="1"><g transform="translate(17.002433, 72.374938)"><g><path d="M 9.78125 -12.453125 L 14.734375 -12.453125 L 10.265625 -7.328125 L 14.828125 0 L 10.109375 0 L 7.515625 -4.5625 L 5.34375 -2.78125 L 5.34375 0 L 1.34375 0 L 1.34375 -12.453125 L 5.34375 -12.453125 L 5.34375 -7.140625 Z M 9.78125 -12.453125 "/></g></g></g><g fill="#452543" fill-opacity="1"><g transform="translate(30.997049, 72.374938)"><g><path d="M 1.515625 0 L 1.515625 -12.453125 L 5.515625 -12.453125 L 5.515625 0 Z M 1.515625 0 "/></g></g></g><g fill="#452543" fill-opacity="1"><g transform="translate(36.953363, 72.374938)"><g><path d="M 8.515625 -9.265625 L 8.515625 0 L 4.515625 0 L 4.515625 -9.265625 L 0.421875 -9.265625 L 0.421875 -12.453125 L 12.59375 -12.453125 L 12.59375 -9.265625 Z M 8.515625 -9.265625 "/></g></g></g><g fill="#452543" fill-opacity="1"><g transform="translate(48.938403, 72.374938)"><g/></g></g><g fill="#452543" fill-opacity="1"><g transform="translate(53.880879, 72.374938)"><g><path d="M 8.328125 -12.453125 C 9.097656 -12.453125 9.785156 -12.273438 10.390625 -11.921875 C 10.992188 -11.566406 11.460938 -11.078125 11.796875 -10.453125 C 12.140625 -9.835938 12.3125 -9.140625 12.3125 -8.359375 L 12.3125 -8.125 C 12.3125 -7.351562 12.140625 -6.65625 11.796875 -6.03125 C 11.460938 -5.40625 10.992188 -4.910156 10.390625 -4.546875 C 9.785156 -4.191406 9.097656 -4.015625 8.328125 -4.015625 L 5.34375 -4.015625 L 5.34375 0 L 1.34375 0 L 1.34375 -12.453125 Z M 5.34375 -6.9375 L 6.984375 -6.9375 C 7.410156 -6.9375 7.726562 -7.046875 7.9375 -7.265625 C 8.15625 -7.484375 8.265625 -7.78125 8.265625 -8.15625 L 8.265625 -8.296875 C 8.265625 -8.679688 8.15625 -8.976562 7.9375 -9.1875 C 7.726562 -9.394531 7.410156 -9.5 6.984375 -9.5 L 5.34375 -9.5 Z M 5.34375 -6.9375 "/></g></g></g><g fill="#452543" fill-opacity="1"><g transform="translate(65.865918, 72.374938)"><g><path d="M 9.6875 0 L 9.15625 -1.75 L 4.796875 -1.75 L 4.28125 0 L 0.1875 0 L 4.71875 -12.453125 L 9.375 -12.453125 L 13.921875 0 Z M 5.625 -4.546875 L 8.328125 -4.546875 L 7.03125 -8.984375 L 6.953125 -8.984375 Z M 5.625 -4.546875 "/></g></g></g><g fill="#452543" fill-opacity="1"><g transform="translate(78.864794, 72.374938)"><g><path d="M 7.28125 -12.671875 C 9.125 -12.671875 10.582031 -12.207031 11.65625 -11.28125 C 12.738281 -10.363281 13.28125 -9.046875 13.28125 -7.328125 L 9.453125 -7.328125 C 9.453125 -8.054688 9.257812 -8.628906 8.875 -9.046875 C 8.5 -9.472656 7.960938 -9.6875 7.265625 -9.6875 C 6.453125 -9.6875 5.851562 -9.429688 5.46875 -8.921875 C 5.09375 -8.421875 4.90625 -7.71875 4.90625 -6.8125 L 4.90625 -5.65625 C 4.90625 -4.757812 5.09375 -4.050781 5.46875 -3.53125 C 5.851562 -3.019531 6.4375 -2.765625 7.21875 -2.765625 C 8 -2.765625 8.585938 -2.960938 8.984375 -3.359375 C 9.378906 -3.765625 9.578125 -4.328125 9.578125 -5.046875 L 13.28125 -5.046875 C 13.28125 -3.347656 12.753906 -2.046875 11.703125 -1.140625 C 10.660156 -0.234375 9.1875 0.21875 7.28125 0.21875 C 5.15625 0.21875 3.546875 -0.320312 2.453125 -1.40625 C 1.359375 -2.5 0.8125 -4.109375 0.8125 -6.234375 C 0.8125 -8.359375 1.359375 -9.960938 2.453125 -11.046875 C 3.546875 -12.128906 5.15625 -12.671875 7.28125 -12.671875 Z M 7.28125 -12.671875 "/></g></g></g><g fill="#452543" fill-opacity="1"><g transform="translate(91.86367, 72.374938)"><g><path d="M 9.78125 -12.453125 L 14.734375 -12.453125 L 10.265625 -7.328125 L 14.828125 0 L 10.109375 0 L 7.515625 -4.5625 L 5.34375 -2.78125 L 5.34375 0 L 1.34375 0 L 1.34375 -12.453125 L 5.34375 -12.453125 L 5.34375 -7.140625 Z M 9.78125 -12.453125 "/></g></g></g><g fill="#452543" fill-opacity="1"><g transform="translate(105.858285, 72.374938)"><g/></g></g><g fill="#452543" fill-opacity="1"><g transform="translate(110.800758, 72.374938)"><g><path d="M 7.28125 -12.671875 C 9.125 -12.671875 10.582031 -12.207031 11.65625 -11.28125 C 12.738281 -10.363281 13.28125 -9.046875 13.28125 -7.328125 L 9.453125 -7.328125 C 9.453125 -8.054688 9.257812 -8.628906 8.875 -9.046875 C 8.5 -9.472656 7.960938 -9.6875 7.265625 -9.6875 C 6.453125 -9.6875 5.851562 -9.429688 5.46875 -8.921875 C 5.09375 -8.421875 4.90625 -7.71875 4.90625 -6.8125 L 4.90625 -5.65625 C 4.90625 -4.757812 5.09375 -4.050781 5.46875 -3.53125 C 5.851562 -3.019531 6.4375 -2.765625 7.21875 -2.765625 C 8 -2.765625 8.585938 -2.960938 8.984375 -3.359375 C 9.378906 -3.765625 9.578125 -4.328125 9.578125 -5.046875 L 13.28125 -5.046875 C 13.28125 -3.347656 12.753906 -2.046875 11.703125 -1.140625 C 10.660156 -0.234375 9.1875 0.21875 7.28125 0.21875 C 5.15625 0.21875 3.546875 -0.320312 2.453125 -1.40625 C 1.359375 -2.5 0.8125 -4.109375 0.8125 -6.234375 C 0.8125 -8.359375 1.359375 -9.960938 2.453125 -11.046875 C 3.546875 -12.128906 5.15625 -12.671875 7.28125 -12.671875 Z M 7.28125 -12.671875 "/></g></g></g><g fill="#452543" fill-opacity="1"><g transform="translate(123.799634, 72.374938)"><g><path d="M 9.6875 0 L 9.15625 -1.75 L 4.796875 -1.75 L 4.28125 0 L 0.1875 0 L 4.71875 -12.453125 L 9.375 -12.453125 L 13.921875 0 Z M 5.625 -4.546875 L 8.328125 -4.546875 L 7.03125 -8.984375 L 6.953125 -8.984375 Z M 5.625 -4.546875 "/></g></g></g><g fill="#452543" fill-opacity="1"><g transform="translate(136.798516, 72.374938)"><g><path d="M 10.25 0 L 5.015625 -6.046875 L 5.015625 0 L 1.34375 0 L 1.34375 -12.453125 L 4.828125 -12.453125 L 10.0625 -6.3125 L 10.0625 -12.453125 L 13.75 -12.453125 L 13.75 0 Z M 10.25 0 "/></g></g></g><g fill="#452543" fill-opacity="1"><g transform="translate(150.793137, 72.374938)"><g><path d="M 4.71875 0 L 0.3125 -12.453125 L 4.578125 -12.453125 L 7.078125 -4.125 L 7.15625 -4.125 L 9.671875 -12.453125 L 13.765625 -12.453125 L 9.359375 0 Z M 4.71875 0 "/></g></g></g><g fill="#452543" fill-opacity="1"><g transform="translate(163.792018, 72.374938)"><g><path d="M 9.6875 0 L 9.15625 -1.75 L 4.796875 -1.75 L 4.28125 0 L 0.1875 0 L 4.71875 -12.453125 L 9.375 -12.453125 L 13.921875 0 Z M 5.625 -4.546875 L 8.328125 -4.546875 L 7.03125 -8.984375 L 6.953125 -8.984375 Z M 5.625 -4.546875 "/></g></g></g><g fill="#452543" fill-opacity="1"><g transform="translate(46.686089, 85.439872)"><g><path d="M 5.875 0.1875 C 4.875 0.1875 3.984375 -0.0390625 3.203125 -0.5 C 2.429688 -0.96875 1.832031 -1.597656 1.40625 -2.390625 C 0.988281 -3.191406 0.78125 -4.0625 0.78125 -5 C 0.78125 -6.101562 1.054688 -7.046875 1.609375 -7.828125 C 2.171875 -8.617188 2.890625 -9.210938 3.765625 -9.609375 C 4.640625 -10.003906 5.53125 -10.203125 6.4375 -10.203125 C 7.445312 -10.203125 8.335938 -9.960938 9.109375 -9.484375 C 9.878906 -9.015625 10.46875 -8.390625 10.875 -7.609375 C 11.289062 -6.828125 11.5 -6 11.5 -5.125 C 11.5 -4.144531 11.242188 -3.25 10.734375 -2.4375 C 10.222656 -1.625 9.535156 -0.984375 8.671875 -0.515625 C 7.804688 -0.046875 6.875 0.1875 5.875 0.1875 Z M 6.40625 -0.203125 C 7 -0.203125 7.535156 -0.375 8.015625 -0.71875 C 8.492188 -1.070312 8.863281 -1.582031 9.125 -2.25 C 9.394531 -2.914062 9.53125 -3.71875 9.53125 -4.65625 C 9.53125 -5.632812 9.378906 -6.507812 9.078125 -7.28125 C 8.785156 -8.0625 8.351562 -8.671875 7.78125 -9.109375 C 7.21875 -9.546875 6.554688 -9.765625 5.796875 -9.765625 C 4.816406 -9.765625 4.066406 -9.398438 3.546875 -8.671875 C 3.023438 -7.941406 2.765625 -6.914062 2.765625 -5.59375 C 2.765625 -4.5625 2.921875 -3.632812 3.234375 -2.8125 C 3.546875 -2 3.976562 -1.359375 4.53125 -0.890625 C 5.082031 -0.429688 5.707031 -0.203125 6.40625 -0.203125 Z M 6.40625 -0.203125 "/></g></g></g><g fill="#452543" fill-opacity="1"><g transform="translate(58.979, 85.439872)"><g><path d="M 11.359375 -0.1875 C 11.378906 -0.1875 11.390625 -0.15625 11.390625 -0.09375 C 11.390625 -0.03125 11.378906 0 11.359375 0 L 8.5 0 C 8.269531 0 7.832031 -0.421875 7.1875 -1.265625 C 6.539062 -2.117188 5.765625 -3.3125 4.859375 -4.84375 C 4.773438 -4.832031 4.65625 -4.828125 4.5 -4.828125 C 4.082031 -4.828125 3.785156 -4.832031 3.609375 -4.84375 L 3.609375 -1.296875 C 3.609375 -0.960938 3.632812 -0.722656 3.6875 -0.578125 C 3.738281 -0.429688 3.84375 -0.328125 4 -0.265625 C 4.15625 -0.210938 4.40625 -0.1875 4.75 -0.1875 C 4.769531 -0.1875 4.78125 -0.15625 4.78125 -0.09375 C 4.78125 -0.03125 4.769531 0 4.75 0 C 4.394531 0 4.117188 -0.00390625 3.921875 -0.015625 L 2.703125 -0.03125 L 1.53125 -0.015625 C 1.3125 -0.00390625 1.019531 0 0.65625 0 C 0.625 0 0.609375 -0.03125 0.609375 -0.09375 C 0.609375 -0.15625 0.625 -0.1875 0.65625 -0.1875 C 1 -0.1875 1.25 -0.210938 1.40625 -0.265625 C 1.5625 -0.328125 1.664062 -0.429688 1.71875 -0.578125 C 1.78125 -0.734375 1.8125 -0.972656 1.8125 -1.296875 L 1.8125 -8.734375 C 1.8125 -9.046875 1.785156 -9.273438 1.734375 -9.421875 C 1.679688 -9.578125 1.570312 -9.6875 1.40625 -9.75 C 1.25 -9.8125 1.003906 -9.84375 0.671875 -9.84375 C 0.648438 -9.84375 0.640625 -9.875 0.640625 -9.9375 C 0.640625 -10 0.648438 -10.03125 0.671875 -10.03125 L 1.53125 -10.015625 C 2.019531 -9.992188 2.410156 -9.984375 2.703125 -9.984375 C 3.054688 -9.984375 3.429688 -10 3.828125 -10.03125 C 3.972656 -10.039062 4.148438 -10.050781 4.359375 -10.0625 C 4.566406 -10.070312 4.800781 -10.078125 5.0625 -10.078125 C 6.03125 -10.078125 6.78125 -9.894531 7.3125 -9.53125 C 7.851562 -9.175781 8.125 -8.679688 8.125 -8.046875 C 8.125 -7.453125 7.960938 -6.914062 7.640625 -6.4375 C 7.316406 -5.96875 6.890625 -5.585938 6.359375 -5.296875 C 7.210938 -4.015625 7.925781 -3.007812 8.5 -2.28125 C 9.082031 -1.550781 9.597656 -1.019531 10.046875 -0.6875 C 10.492188 -0.351562 10.929688 -0.1875 11.359375 -0.1875 Z M 3.609375 -5.296875 C 3.867188 -5.253906 4.179688 -5.234375 4.546875 -5.234375 C 5.160156 -5.234375 5.601562 -5.40625 5.875 -5.75 C 6.15625 -6.101562 6.296875 -6.660156 6.296875 -7.421875 C 6.296875 -8.304688 6.164062 -8.910156 5.90625 -9.234375 C 5.644531 -9.566406 5.273438 -9.734375 4.796875 -9.734375 C 4.367188 -9.734375 4.0625 -9.65625 3.875 -9.5 C 3.695312 -9.34375 3.609375 -9.078125 3.609375 -8.703125 Z M 3.609375 -5.296875 "/></g></g></g><g fill="#452543" fill-opacity="1"><g transform="translate(70.180636, 85.439872)"><g><path d="M 11.5 -0.1875 C 11.550781 -0.1875 11.578125 -0.15625 11.578125 -0.09375 C 11.578125 -0.03125 11.550781 0 11.5 0 C 11.289062 0 10.960938 -0.0078125 10.515625 -0.03125 C 10.035156 -0.0507812 9.695312 -0.0625 9.5 -0.0625 C 9.226562 -0.0625 8.898438 -0.0507812 8.515625 -0.03125 C 8.148438 -0.0078125 7.863281 0 7.65625 0 C 7.613281 0 7.59375 -0.03125 7.59375 -0.09375 C 7.59375 -0.15625 7.613281 -0.1875 7.65625 -0.1875 C 7.9375 -0.1875 8.132812 -0.21875 8.25 -0.28125 C 8.375 -0.34375 8.4375 -0.445312 8.4375 -0.59375 C 8.4375 -0.769531 8.332031 -1.078125 8.125 -1.515625 L 7.03125 -3.671875 L 3.078125 -3.671875 L 2.453125 -2.28125 C 2.316406 -1.96875 2.25 -1.675781 2.25 -1.40625 C 2.25 -1.019531 2.382812 -0.71875 2.65625 -0.5 C 2.925781 -0.289062 3.289062 -0.1875 3.75 -0.1875 C 3.800781 -0.1875 3.828125 -0.15625 3.828125 -0.09375 C 3.828125 -0.03125 3.800781 0 3.75 0 C 3.5625 0 3.285156 -0.0078125 2.921875 -0.03125 C 2.515625 -0.0507812 2.160156 -0.0625 1.859375 -0.0625 C 1.566406 -0.0625 1.21875 -0.0507812 0.8125 -0.03125 C 0.445312 -0.0078125 0.15625 0 -0.0625 0 C -0.101562 0 -0.125 -0.03125 -0.125 -0.09375 C -0.125 -0.15625 -0.101562 -0.1875 -0.0625 -0.1875 C 0.238281 -0.1875 0.488281 -0.25 0.6875 -0.375 C 0.894531 -0.5 1.097656 -0.71875 1.296875 -1.03125 C 1.503906 -1.351562 1.742188 -1.820312 2.015625 -2.4375 L 5.5 -10.09375 C 5.519531 -10.125 5.570312 -10.140625 5.65625 -10.140625 C 5.738281 -10.140625 5.785156 -10.125 5.796875 -10.09375 L 9.796875 -2.203125 C 10.171875 -1.441406 10.484375 -0.914062 10.734375 -0.625 C 10.984375 -0.332031 11.238281 -0.1875 11.5 -0.1875 Z M 3.296875 -4.125 L 6.78125 -4.125 L 4.9375 -7.78125 Z M 3.296875 -4.125 "/></g></g></g><g fill="#452543" fill-opacity="1"><g transform="translate(81.671141, 85.439872)"><g><path d="M 6.859375 -10.203125 C 7.359375 -10.203125 7.863281 -10.160156 8.375 -10.078125 C 8.894531 -10.003906 9.3125 -9.898438 9.625 -9.765625 C 9.71875 -9.734375 9.78125 -9.691406 9.8125 -9.640625 C 9.84375 -9.597656 9.863281 -9.519531 9.875 -9.40625 L 10.078125 -7.171875 C 10.078125 -7.140625 10.050781 -7.117188 10 -7.109375 C 9.945312 -7.097656 9.910156 -7.113281 9.890625 -7.15625 C 9.585938 -8.03125 9.15625 -8.703125 8.59375 -9.171875 C 8.039062 -9.640625 7.375 -9.875 6.59375 -9.875 C 5.863281 -9.875 5.210938 -9.675781 4.640625 -9.28125 C 4.066406 -8.894531 3.617188 -8.335938 3.296875 -7.609375 C 2.972656 -6.878906 2.8125 -6.03125 2.8125 -5.0625 C 2.8125 -4.070312 2.976562 -3.203125 3.3125 -2.453125 C 3.644531 -1.710938 4.109375 -1.140625 4.703125 -0.734375 C 5.296875 -0.335938 5.976562 -0.140625 6.75 -0.140625 C 7.488281 -0.140625 8.109375 -0.335938 8.609375 -0.734375 C 9.117188 -1.140625 9.597656 -1.804688 10.046875 -2.734375 C 10.054688 -2.765625 10.085938 -2.773438 10.140625 -2.765625 C 10.191406 -2.753906 10.21875 -2.734375 10.21875 -2.703125 L 9.984375 -0.703125 C 9.960938 -0.578125 9.941406 -0.492188 9.921875 -0.453125 C 9.898438 -0.421875 9.835938 -0.382812 9.734375 -0.34375 C 8.753906 0.0078125 7.757812 0.1875 6.75 0.1875 C 5.601562 0.1875 4.578125 -0.0234375 3.671875 -0.453125 C 2.773438 -0.890625 2.066406 -1.5 1.546875 -2.28125 C 1.035156 -3.0625 0.78125 -3.945312 0.78125 -4.9375 C 0.78125 -5.957031 1.046875 -6.863281 1.578125 -7.65625 C 2.109375 -8.457031 2.835938 -9.082031 3.765625 -9.53125 C 4.691406 -9.976562 5.722656 -10.203125 6.859375 -10.203125 Z M 6.859375 -10.203125 "/></g></g></g><g fill="#452543" fill-opacity="1"><g transform="translate(92.599957, 85.439872)"><g><path d="M 9.15625 -7.96875 C 9.15625 -8.550781 9.023438 -9.007812 8.765625 -9.34375 C 8.503906 -9.675781 8.140625 -9.84375 7.671875 -9.84375 C 7.648438 -9.84375 7.640625 -9.875 7.640625 -9.9375 C 7.640625 -10 7.648438 -10.03125 7.671875 -10.03125 L 8.4375 -10.015625 C 8.84375 -9.992188 9.171875 -9.984375 9.421875 -9.984375 C 9.617188 -9.984375 9.910156 -9.992188 10.296875 -10.015625 L 11.046875 -10.03125 C 11.066406 -10.03125 11.078125 -10 11.078125 -9.9375 C 11.078125 -9.875 11.066406 -9.84375 11.046875 -9.84375 C 10.628906 -9.84375 10.300781 -9.675781 10.0625 -9.34375 C 9.820312 -9.007812 9.703125 -8.550781 9.703125 -7.96875 L 9.703125 -3.515625 C 9.703125 -2.765625 9.535156 -2.101562 9.203125 -1.53125 C 8.878906 -0.96875 8.414062 -0.535156 7.8125 -0.234375 C 7.207031 0.0664062 6.507812 0.21875 5.71875 0.21875 C 4.925781 0.21875 4.222656 0.0703125 3.609375 -0.21875 C 3.003906 -0.519531 2.523438 -0.957031 2.171875 -1.53125 C 1.828125 -2.101562 1.65625 -2.773438 1.65625 -3.546875 L 1.65625 -8.734375 C 1.65625 -9.046875 1.625 -9.273438 1.5625 -9.421875 C 1.5 -9.578125 1.390625 -9.6875 1.234375 -9.75 C 1.085938 -9.8125 0.847656 -9.84375 0.515625 -9.84375 C 0.484375 -9.84375 0.46875 -9.875 0.46875 -9.9375 C 0.46875 -10 0.484375 -10.03125 0.515625 -10.03125 L 1.359375 -10.015625 C 1.859375 -9.992188 2.25 -9.984375 2.53125 -9.984375 C 2.851562 -9.984375 3.257812 -9.992188 3.75 -10.015625 L 4.578125 -10.03125 C 4.609375 -10.03125 4.625 -10 4.625 -9.9375 C 4.625 -9.875 4.609375 -9.84375 4.578125 -9.84375 C 4.242188 -9.84375 4 -9.804688 3.84375 -9.734375 C 3.6875 -9.671875 3.578125 -9.5625 3.515625 -9.40625 C 3.460938 -9.25 3.4375 -9.015625 3.4375 -8.703125 L 3.4375 -4.109375 C 3.4375 -2.835938 3.6875 -1.894531 4.1875 -1.28125 C 4.6875 -0.675781 5.398438 -0.375 6.328125 -0.375 C 7.210938 -0.375 7.90625 -0.640625 8.40625 -1.171875 C 8.90625 -1.710938 9.15625 -2.488281 9.15625 -3.5 Z M 9.15625 -7.96875 "/></g></g></g><g fill="#452543" fill-opacity="1"><g transform="translate(103.881834, 85.439872)"><g><path d="M 3.421875 -1.359375 C 3.421875 -1.085938 3.441406 -0.890625 3.484375 -0.765625 C 3.523438 -0.640625 3.609375 -0.554688 3.734375 -0.515625 C 3.859375 -0.472656 4.054688 -0.453125 4.328125 -0.453125 L 4.875 -0.453125 C 5.707031 -0.453125 6.425781 -0.671875 7.03125 -1.109375 C 7.644531 -1.554688 8.054688 -2.160156 8.265625 -2.921875 C 8.265625 -2.941406 8.285156 -2.953125 8.328125 -2.953125 C 8.347656 -2.953125 8.367188 -2.941406 8.390625 -2.921875 C 8.421875 -2.910156 8.4375 -2.898438 8.4375 -2.890625 C 8.34375 -1.828125 8.296875 -0.941406 8.296875 -0.234375 C 8.296875 -0.148438 8.273438 -0.0859375 8.234375 -0.046875 C 8.203125 -0.015625 8.144531 0 8.0625 0 L 0.484375 0 C 0.460938 0 0.453125 -0.03125 0.453125 -0.09375 C 0.453125 -0.15625 0.460938 -0.1875 0.484375 -0.1875 C 0.828125 -0.1875 1.070312 -0.210938 1.21875 -0.265625 C 1.375 -0.328125 1.484375 -0.429688 1.546875 -0.578125 C 1.609375 -0.734375 1.640625 -0.972656 1.640625 -1.296875 L 1.640625 -8.734375 C 1.640625 -9.046875 1.609375 -9.273438 1.546875 -9.421875 C 1.484375 -9.578125 1.375 -9.6875 1.21875 -9.75 C 1.0625 -9.8125 0.816406 -9.84375 0.484375 -9.84375 C 0.460938 -9.84375 0.453125 -9.875 0.453125 -9.9375 C 0.453125 -10 0.460938 -10.03125 0.484375 -10.03125 L 1.296875 -10.015625 C 1.785156 -9.992188 2.191406 -9.984375 2.515625 -9.984375 C 2.835938 -9.984375 3.242188 -9.992188 3.734375 -10.015625 L 4.5625 -10.03125 C 4.59375 -10.03125 4.609375 -10 4.609375 -9.9375 C 4.609375 -9.875 4.59375 -9.84375 4.5625 -9.84375 C 4.226562 -9.84375 3.976562 -9.8125 3.8125 -9.75 C 3.65625 -9.6875 3.550781 -9.578125 3.5 -9.421875 C 3.445312 -9.265625 3.421875 -9.03125 3.421875 -8.71875 Z M 3.421875 -1.359375 "/></g></g></g><g fill="#452543" fill-opacity="1"><g transform="translate(112.628098, 85.439872)"><g><path d="M 3.640625 -1.296875 C 3.640625 -0.960938 3.664062 -0.722656 3.71875 -0.578125 C 3.769531 -0.429688 3.875 -0.328125 4.03125 -0.265625 C 4.1875 -0.210938 4.4375 -0.1875 4.78125 -0.1875 C 4.8125 -0.1875 4.828125 -0.15625 4.828125 -0.09375 C 4.828125 -0.03125 4.8125 0 4.78125 0 C 4.425781 0 4.148438 -0.00390625 3.953125 -0.015625 L 2.734375 -0.03125 L 1.546875 -0.015625 C 1.328125 -0.00390625 1.035156 0 0.671875 0 C 0.648438 0 0.640625 -0.03125 0.640625 -0.09375 C 0.640625 -0.15625 0.648438 -0.1875 0.671875 -0.1875 C 1.015625 -0.1875 1.265625 -0.210938 1.421875 -0.265625 C 1.585938 -0.328125 1.695312 -0.429688 1.75 -0.578125 C 1.8125 -0.734375 1.84375 -0.972656 1.84375 -1.296875 L 1.84375 -8.734375 C 1.84375 -9.046875 1.8125 -9.273438 1.75 -9.421875 C 1.695312 -9.578125 1.585938 -9.6875 1.421875 -9.75 C 1.265625 -9.8125 1.015625 -9.84375 0.671875 -9.84375 C 0.648438 -9.84375 0.640625 -9.875 0.640625 -9.9375 C 0.640625 -10 0.648438 -10.03125 0.671875 -10.03125 L 1.546875 -10.015625 C 2.035156 -9.992188 2.429688 -9.984375 2.734375 -9.984375 C 3.054688 -9.984375 3.46875 -9.992188 3.96875 -10.015625 L 4.78125 -10.03125 C 4.8125 -10.03125 4.828125 -10 4.828125 -9.9375 C 4.828125 -9.875 4.8125 -9.84375 4.78125 -9.84375 C 4.445312 -9.84375 4.195312 -9.804688 4.03125 -9.734375 C 3.875 -9.671875 3.769531 -9.5625 3.71875 -9.40625 C 3.664062 -9.25 3.640625 -9.015625 3.640625 -8.703125 Z M 3.640625 -1.296875 "/></g></g></g><g fill="#452543" fill-opacity="1"><g transform="translate(118.11658, 85.439872)"><g><path d="M 2.796875 -8.40625 C 2.796875 -8.019531 2.894531 -7.675781 3.09375 -7.375 C 3.289062 -7.082031 3.53125 -6.820312 3.8125 -6.59375 C 4.101562 -6.375 4.492188 -6.101562 4.984375 -5.78125 C 5.523438 -5.4375 5.953125 -5.132812 6.265625 -4.875 C 6.585938 -4.625 6.859375 -4.3125 7.078125 -3.9375 C 7.304688 -3.570312 7.421875 -3.144531 7.421875 -2.65625 C 7.421875 -2.101562 7.269531 -1.609375 6.96875 -1.171875 C 6.675781 -0.742188 6.265625 -0.410156 5.734375 -0.171875 C 5.203125 0.0664062 4.613281 0.1875 3.96875 0.1875 C 3.476562 0.1875 2.972656 0.125 2.453125 0 C 1.929688 -0.132812 1.578125 -0.285156 1.390625 -0.453125 C 1.335938 -0.492188 1.296875 -0.53125 1.265625 -0.5625 C 1.242188 -0.601562 1.234375 -0.664062 1.234375 -0.75 L 1.1875 -3.3125 L 1.1875 -3.328125 C 1.1875 -3.367188 1.210938 -3.390625 1.265625 -3.390625 C 1.316406 -3.398438 1.347656 -3.382812 1.359375 -3.34375 C 1.679688 -2.6875 1.960938 -2.15625 2.203125 -1.75 C 2.441406 -1.34375 2.742188 -0.984375 3.109375 -0.671875 C 3.484375 -0.359375 3.90625 -0.203125 4.375 -0.203125 C 4.800781 -0.203125 5.15625 -0.316406 5.4375 -0.546875 C 5.71875 -0.785156 5.859375 -1.179688 5.859375 -1.734375 C 5.859375 -2.203125 5.753906 -2.613281 5.546875 -2.96875 C 5.335938 -3.320312 5.082031 -3.617188 4.78125 -3.859375 C 4.476562 -4.109375 4.066406 -4.40625 3.546875 -4.75 C 3.035156 -5.082031 2.632812 -5.363281 2.34375 -5.59375 C 2.0625 -5.832031 1.816406 -6.117188 1.609375 -6.453125 C 1.410156 -6.785156 1.3125 -7.175781 1.3125 -7.625 C 1.3125 -8.1875 1.472656 -8.660156 1.796875 -9.046875 C 2.128906 -9.441406 2.550781 -9.734375 3.0625 -9.921875 C 3.570312 -10.109375 4.113281 -10.203125 4.6875 -10.203125 C 5.0625 -10.203125 5.441406 -10.164062 5.828125 -10.09375 C 6.210938 -10.03125 6.519531 -9.953125 6.75 -9.859375 C 6.851562 -9.804688 6.921875 -9.753906 6.953125 -9.703125 C 6.984375 -9.660156 7 -9.601562 7 -9.53125 L 7 -7.171875 C 7 -7.140625 6.96875 -7.113281 6.90625 -7.09375 C 6.851562 -7.082031 6.820312 -7.09375 6.8125 -7.125 L 6.6875 -7.421875 C 6.425781 -8.097656 6.113281 -8.671875 5.75 -9.140625 C 5.394531 -9.617188 4.894531 -9.859375 4.25 -9.859375 C 3.820312 -9.859375 3.472656 -9.734375 3.203125 -9.484375 C 2.929688 -9.234375 2.796875 -8.875 2.796875 -8.40625 Z M 2.796875 -8.40625 "/></g></g></g><g fill="#452543" fill-opacity="1"><g transform="translate(126.381395, 85.439872)"><g><path d="M 3.5625 -9.65625 C 2.289062 -9.65625 1.375 -8.828125 0.8125 -7.171875 C 0.800781 -7.140625 0.769531 -7.125 0.71875 -7.125 C 0.664062 -7.132812 0.640625 -7.15625 0.640625 -7.1875 C 0.679688 -7.613281 0.726562 -8.164062 0.78125 -8.84375 C 0.832031 -9.53125 0.859375 -10.039062 0.859375 -10.375 C 0.859375 -10.4375 0.890625 -10.46875 0.953125 -10.46875 C 1.015625 -10.46875 1.046875 -10.4375 1.046875 -10.375 C 1.046875 -10.144531 1.347656 -10.03125 1.953125 -10.03125 C 2.878906 -10 3.957031 -9.984375 5.1875 -9.984375 C 5.8125 -9.984375 6.476562 -9.992188 7.1875 -10.015625 L 8.28125 -10.03125 C 8.6875 -10.03125 8.984375 -10.054688 9.171875 -10.109375 C 9.359375 -10.160156 9.476562 -10.269531 9.53125 -10.4375 C 9.539062 -10.476562 9.570312 -10.5 9.625 -10.5 C 9.6875 -10.5 9.71875 -10.476562 9.71875 -10.4375 C 9.6875 -10.113281 9.648438 -9.597656 9.609375 -8.890625 C 9.578125 -8.179688 9.5625 -7.613281 9.5625 -7.1875 C 9.5625 -7.15625 9.535156 -7.140625 9.484375 -7.140625 C 9.429688 -7.140625 9.398438 -7.15625 9.390625 -7.1875 C 9.222656 -8.007812 8.921875 -8.625 8.484375 -9.03125 C 8.046875 -9.445312 7.507812 -9.65625 6.875 -9.65625 C 6.5625 -9.65625 6.351562 -9.585938 6.25 -9.453125 C 6.144531 -9.328125 6.09375 -9.078125 6.09375 -8.703125 L 6.09375 -1.296875 C 6.09375 -0.960938 6.125 -0.722656 6.1875 -0.578125 C 6.257812 -0.429688 6.382812 -0.328125 6.5625 -0.265625 C 6.738281 -0.210938 7.023438 -0.1875 7.421875 -0.1875 C 7.460938 -0.1875 7.484375 -0.15625 7.484375 -0.09375 C 7.484375 -0.03125 7.460938 0 7.421875 0 C 7.046875 0 6.742188 -0.00390625 6.515625 -0.015625 L 5.1875 -0.03125 L 3.890625 -0.015625 C 3.660156 -0.00390625 3.347656 0 2.953125 0 C 2.921875 0 2.90625 -0.03125 2.90625 -0.09375 C 2.90625 -0.15625 2.921875 -0.1875 2.953125 -0.1875 C 3.335938 -0.1875 3.625 -0.210938 3.8125 -0.265625 C 4 -0.328125 4.125 -0.429688 4.1875 -0.578125 C 4.257812 -0.734375 4.296875 -0.972656 4.296875 -1.296875 L 4.296875 -8.734375 C 4.296875 -9.097656 4.25 -9.34375 4.15625 -9.46875 C 4.0625 -9.59375 3.863281 -9.65625 3.5625 -9.65625 Z M 3.5625 -9.65625 "/></g></g></g><g fill="#452543" fill-opacity="1"><g transform="translate(136.700384, 85.439872)"><g><path d="M 11.5 -0.1875 C 11.550781 -0.1875 11.578125 -0.15625 11.578125 -0.09375 C 11.578125 -0.03125 11.550781 0 11.5 0 C 11.289062 0 10.960938 -0.0078125 10.515625 -0.03125 C 10.035156 -0.0507812 9.695312 -0.0625 9.5 -0.0625 C 9.226562 -0.0625 8.898438 -0.0507812 8.515625 -0.03125 C 8.148438 -0.0078125 7.863281 0 7.65625 0 C 7.613281 0 7.59375 -0.03125 7.59375 -0.09375 C 7.59375 -0.15625 7.613281 -0.1875 7.65625 -0.1875 C 7.9375 -0.1875 8.132812 -0.21875 8.25 -0.28125 C 8.375 -0.34375 8.4375 -0.445312 8.4375 -0.59375 C 8.4375 -0.769531 8.332031 -1.078125 8.125 -1.515625 L 7.03125 -3.671875 L 3.078125 -3.671875 L 2.453125 -2.28125 C 2.316406 -1.96875 2.25 -1.675781 2.25 -1.40625 C 2.25 -1.019531 2.382812 -0.71875 2.65625 -0.5 C 2.925781 -0.289062 3.289062 -0.1875 3.75 -0.1875 C 3.800781 -0.1875 3.828125 -0.15625 3.828125 -0.09375 C 3.828125 -0.03125 3.800781 0 3.75 0 C 3.5625 0 3.285156 -0.0078125 2.921875 -0.03125 C 2.515625 -0.0507812 2.160156 -0.0625 1.859375 -0.0625 C 1.566406 -0.0625 1.21875 -0.0507812 0.8125 -0.03125 C 0.445312 -0.0078125 0.15625 0 -0.0625 0 C -0.101562 0 -0.125 -0.03125 -0.125 -0.09375 C -0.125 -0.15625 -0.101562 -0.1875 -0.0625 -0.1875 C 0.238281 -0.1875 0.488281 -0.25 0.6875 -0.375 C 0.894531 -0.5 1.097656 -0.71875 1.296875 -1.03125 C 1.503906 -1.351562 1.742188 -1.820312 2.015625 -2.4375 L 5.5 -10.09375 C 5.519531 -10.125 5.570312 -10.140625 5.65625 -10.140625 C 5.738281 -10.140625 5.785156 -10.125 5.796875 -10.09375 L 9.796875 -2.203125 C 10.171875 -1.441406 10.484375 -0.914062 10.734375 -0.625 C 10.984375 -0.332031 11.238281 -0.1875 11.5 -0.1875 Z M 3.296875 -4.125 L 6.78125 -4.125 L 4.9375 -7.78125 Z M 3.296875 -4.125 "/></g></g></g></svg>