<svg xmlns="http://www.w3.org/2000/svg" xmlns:xlink="http://www.w3.org/1999/xlink" width="150" zoomAndPan="magnify" viewBox="0 0 112.5 30.000001" height="40" preserveAspectRatio="xMidYMid meet" version="1.0"><defs><g/><clipPath id="6e13a3806b"><path d="M 62 7.953125 L 68 7.953125 L 68 14 L 62 14 Z M 62 7.953125 " clip-rule="nonzero"/></clipPath><clipPath id="0420c35d29"><path d="M 62.722656 14.515625 L 68.195312 14.515625 L 68.195312 16.484375 L 62.722656 16.484375 Z M 62.722656 14.515625 " clip-rule="nonzero"/></clipPath><clipPath id="683e78251d"><path d="M 45.6875 14 L 51 14 L 51 17 L 45.6875 17 Z M 45.6875 14 " clip-rule="nonzero"/></clipPath><clipPath id="4309c4da6a"><path d="M 59.804688 13.265625 L 64.671875 13.265625 L 64.671875 17.402344 L 59.804688 17.402344 Z M 59.804688 13.265625 " clip-rule="nonzero"/></clipPath></defs><path fill="#231f20" d="M 51.195312 11.960938 L 50.351562 10.363281 C 49.378906 9.816406 46.648438 9.714844 46.648438 9.714844 L 50.078125 10.832031 L 51.195312 11.960938 " fill-opacity="1" fill-rule="nonzero"/><path fill="#231f20" d="M 48.300781 11.371094 L 46.652344 10.210938 L 47.707031 11.273438 Z M 48.300781 11.371094 " fill-opacity="1" fill-rule="nonzero"/><path fill="#231f20" d="M 52.398438 14.511719 L 51.417969 15.804688 L 53.945312 14.816406 L 49.695312 12.390625 L 52.398438 14.511719 " fill-opacity="1" fill-rule="nonzero"/><path fill="#231f20" d="M 61.613281 11.53125 C 61.613281 11.53125 59.503906 9.761719 57.625 9.894531 C 55.75 10.027344 54.203125 12.21875 54.203125 12.21875 C 57.882812 9.855469 61.613281 11.53125 61.613281 11.53125 " fill-opacity="1" fill-rule="nonzero"/><path fill="#231f20" d="M 62.808594 12.832031 L 62.109375 11.882812 L 56.746094 13.824219 L 62.113281 12.300781 L 62.808594 12.832031 " fill-opacity="1" fill-rule="nonzero"/><g clip-path="url(#6e13a3806b)"><path fill="#231f20" d="M 62.796875 11.265625 C 65.234375 11.847656 67.144531 13.253906 67.144531 13.253906 C 65.925781 9.140625 63.359375 7.953125 63.359375 7.953125 L 63.117188 8.863281 C 65.1875 10.910156 62.796875 11.265625 62.796875 11.265625 " fill-opacity="1" fill-rule="nonzero"/></g><g clip-path="url(#0420c35d29)"><path fill="#231f20" d="M 62.726562 15.03125 C 66.105469 14.472656 68.195312 16.476562 68.195312 16.476562 C 66.09375 13.222656 62.726562 15.03125 62.726562 15.03125 " fill-opacity="1" fill-rule="nonzero"/></g><g clip-path="url(#683e78251d)"><path fill="#231f20" d="M 45.6875 16.480469 C 47.234375 14.371094 50.421875 14.742188 50.421875 14.742188 C 46.792969 13.222656 45.6875 16.480469 45.6875 16.480469 " fill-opacity="1" fill-rule="nonzero"/></g><g clip-path="url(#4309c4da6a)"><path fill="#231f20" d="M 64.296875 13.277344 C 60.105469 13.410156 59.804688 17.402344 59.804688 17.402344 C 60.878906 14.039062 64.667969 13.769531 64.667969 13.769531 L 64.296875 13.277344 " fill-opacity="1" fill-rule="nonzero"/></g><path fill="#231f20" d="M 51.273438 12.023438 C 52.46875 13.210938 54.203125 12.359375 54.203125 12.359375 C 52.515625 12.515625 51.273438 12.023438 51.273438 12.023438 " fill-opacity="1" fill-rule="nonzero"/><g fill="#000000" fill-opacity="1"><g transform="translate(31.506587, 20.103452)"><g><path d="M 4.265625 -2.921875 L 4.265625 0 L 3.5625 0 L 3.5625 -2.234375 L 2.578125 -2.234375 L 2.578125 0 L 1.890625 0 L 1.890625 -2.234375 L 0.90625 -2.234375 L 0.90625 0 L 0.21875 0 L 0.21875 -2.921875 Z M 4.265625 -2.921875 "/></g></g></g><g fill="#000000" fill-opacity="1"><g transform="translate(35.990734, 20.103452)"><g><path d="M 3.140625 -2.234375 L 0.90625 -2.234375 L 0.90625 -1.8125 L 3.140625 -1.8125 L 3.140625 -1.125 L 0.90625 -1.125 L 0.90625 -0.6875 L 3.140625 -0.6875 L 3.140625 0 L 0.21875 0 L 0.21875 -2.921875 L 3.140625 -2.921875 Z M 3.140625 -2.234375 "/></g></g></g><g fill="#000000" fill-opacity="1"><g transform="translate(39.356029, 20.103452)"><g><path d="M 0.21875 -2.921875 L 3.140625 -2.921875 L 3.140625 -2.234375 L 0.90625 -2.234375 L 0.90625 -0.6875 L 3.140625 -0.6875 L 3.140625 0 L 0.21875 0 Z M 0.21875 -2.921875 "/></g></g></g><g fill="#000000" fill-opacity="1"><g transform="translate(42.721324, 20.103452)"><g><path d="M 1.6875 -3.828125 L 1.46875 -3.140625 L 0.765625 -3.140625 L 0.984375 -3.828125 Z M 0.21875 0 L 0.21875 -2.921875 L 3.140625 -2.921875 L 3.140625 0 L 2.453125 0 L 2.453125 -0.5625 L 0.90625 -0.5625 L 0.90625 0 Z M 0.90625 -1.25 L 2.453125 -1.25 L 2.453125 -2.234375 L 0.90625 -2.234375 Z M 1.6875 -3.828125 L 2.375 -3.828125 L 2.59375 -3.140625 L 1.890625 -3.140625 Z M 1.6875 -3.828125 "/></g></g></g><g fill="#000000" fill-opacity="1"><g transform="translate(46.086619, 20.103452)"><g><path d="M 2.453125 -2.921875 L 3.140625 -2.921875 L 3.140625 0.015625 L 3.109375 0 L 2.453125 0 L 2.453125 -0.46875 L 0.90625 -1.578125 L 0.90625 0 L 0.21875 0 L 0.21875 -2.921875 L 0.90625 -2.921875 L 0.90625 -2.4375 L 2.453125 -1.34375 Z M 2.453125 -2.921875 "/></g></g></g><g fill="#000000" fill-opacity="1"><g transform="translate(49.451914, 20.103452)"><g><path d="M 0.90625 -2.03125 L 0.90625 0 L 0.21875 0 L 0.21875 -2.03125 Z M 0.21875 -2.234375 L 0.21875 -2.921875 L 0.90625 -2.921875 L 0.90625 -2.234375 Z M 0.21875 -2.234375 "/></g></g></g><g fill="#000000" fill-opacity="1"><g transform="translate(50.579506, 20.103452)"><g><path d="M 0.21875 -2.921875 L 3.140625 -2.921875 L 3.140625 -2.234375 L 0.90625 -2.234375 L 0.90625 -0.6875 L 3.140625 -0.6875 L 3.140625 0 L 0.21875 0 Z M 0.21875 -2.921875 "/></g></g></g><g fill="#000000" fill-opacity="1"><g transform="translate(53.944801, 20.103452)"><g><path d="M 0.90625 -2.234375 L 0.90625 -0.6875 L 2.453125 -0.6875 L 2.453125 -2.234375 Z M 0.21875 0 L 0.21875 -2.921875 L 3.140625 -2.921875 L 3.140625 0 Z M 0.21875 0 "/></g></g></g><g fill="#000000" fill-opacity="1"><g transform="translate(57.310096, 20.103452)"><g/></g></g><g fill="#000000" fill-opacity="1"><g transform="translate(59.932404, 20.103452)"><g><path d="M 2.453125 -1.25 L 2.453125 -2.234375 L 0.90625 -2.234375 L 0.90625 -1.25 Z M 0.21875 0 L 0.21875 -2.921875 L 3.140625 -2.921875 L 3.140625 -0.5625 L 0.90625 -0.5625 L 0.90625 0 Z M 0.21875 0 "/></g></g></g><g fill="#000000" fill-opacity="1"><g transform="translate(63.297699, 20.103452)"><g><path d="M 0.21875 -2.921875 L 3.140625 -2.921875 L 3.140625 -0.5625 L 2.578125 -0.5625 L 3.140625 0 L 2.296875 0 L 1.75 -0.5625 L 0.90625 -0.5625 L 0.90625 0 L 0.21875 0 Z M 0.90625 -1.25 L 2.453125 -1.25 L 2.453125 -2.234375 L 0.90625 -2.234375 Z M 0.90625 -1.25 "/></g></g></g><g fill="#000000" fill-opacity="1"><g transform="translate(66.662994, 20.103452)"><g><path d="M 0.90625 -2.234375 L 0.90625 -0.6875 L 2.453125 -0.6875 L 2.453125 -2.234375 Z M 0.21875 0 L 0.21875 -2.921875 L 3.140625 -2.921875 L 3.140625 0 Z M 0.21875 0 "/></g></g></g><g fill="#000000" fill-opacity="1"><g transform="translate(70.028289, 20.103452)"><g/></g></g><g fill="#000000" fill-opacity="1"><g transform="translate(72.650597, 20.103452)"><g><path d="M 0.21875 -2.921875 L 3.140625 -2.921875 L 3.140625 -1.125 L 0.90625 -1.125 L 0.90625 -0.6875 L 3.140625 -0.6875 L 3.140625 0 L 0.21875 0 L 0.21875 -1.8125 L 2.453125 -1.8125 L 2.453125 -2.234375 L 0.21875 -2.234375 Z M 0.21875 -2.921875 "/></g></g></g><g fill="#000000" fill-opacity="1"><g transform="translate(76.015892, 20.103452)"><g><path d="M 0.21875 0 L 0.21875 -0.6875 L 0.90625 -0.6875 L 0.90625 0 Z M 0.21875 0 "/></g></g></g><g fill="#000000" fill-opacity="1"><g transform="translate(77.143484, 20.103452)"><g><path d="M 0.21875 0 L 0.21875 -2.921875 L 3.140625 -2.921875 L 3.140625 0 Z M 0.90625 -0.6875 L 2.453125 -0.6875 L 2.453125 -2.234375 L 0.90625 -2.234375 Z M 0.90625 -0.6875 "/></g></g></g></svg>